<?xml version="1.0" encoding="utf-8" standalone="no"?>
<!DOCTYPE svg PUBLIC "-//W3C//DTD SVG 1.1//EN"
  "http://www.w3.org/Graphics/SVG/1.1/DTD/svg11.dtd">
<svg xmlns:xlink="http://www.w3.org/1999/xlink" width="548.49375pt" height="361.776476pt" viewBox="0 0 548.49375 361.776476" xmlns="http://www.w3.org/2000/svg" version="1.1">
 <metadata>
  <rdf:RDF xmlns:dc="http://purl.org/dc/elements/1.1/" xmlns:cc="http://creativecommons.org/ns#" xmlns:rdf="http://www.w3.org/1999/02/22-rdf-syntax-ns#">
   <cc:Work>
    <dc:type rdf:resource="http://purl.org/dc/dcmitype/StillImage"/>
    <dc:date>2026-06-24T23:25:39.862379</dc:date>
    <dc:format>image/svg+xml</dc:format>
    <dc:creator>
     <cc:Agent>
      <dc:title>Matplotlib v3.5.1, https://matplotlib.org/</dc:title>
     </cc:Agent>
    </dc:creator>
   </cc:Work>
  </rdf:RDF>
 </metadata>
 <defs>
  <style type="text/css">*{stroke-linejoin: round; stroke-linecap: butt}</style>
 </defs>
 <g id="figure_1">
  <g id="patch_1">
   <path d="M 0 361.776476 
L 548.49375 361.776476 
L 548.49375 0 
L 0 0 
z
" style="fill: #ffffff"/>
  </g>
  <g id="axes_1">
   <g id="line2d_1">
    <path d="M 50.57775 45.453126 
L 512.60175 45.453126 
" clip-path="url(#p65727ebdd9)" style="fill: none; stroke: #2f3437; stroke-width: 0.9; stroke-linecap: square"/>
   </g>
   <g id="line2d_2">
    <path d="M 50.57775 70.005545 
L 512.60175 70.005545 
" clip-path="url(#p65727ebdd9)" style="fill: none; stroke: #e6e8ea; stroke-width: 0.65; stroke-linecap: square"/>
   </g>
   <g id="line2d_3">
    <path d="M 50.57775 91.635057 
L 512.60175 91.635057 
" clip-path="url(#p65727ebdd9)" style="fill: none; stroke: #e6e8ea; stroke-width: 0.65; stroke-linecap: square"/>
   </g>
   <g id="line2d_4">
    <path d="M 50.57775 113.264568 
L 512.60175 113.264568 
" clip-path="url(#p65727ebdd9)" style="fill: none; stroke: #2f3437; stroke-width: 0.9; stroke-linecap: square"/>
   </g>
   <g id="text_1">
    <text style="fill: #22262a; font: 700 9px 'sans-serif'; text-anchor: start" x="22.95675" y="12.598594" transform="rotate(-0, 22.95675, 12.598594)">a</text>
   </g>
   <g id="text_2">
    <text style="font: 700 9.4px 'sans-serif'; text-anchor: start" x="50.57775" y="27.458658" transform="rotate(-0, 50.57775, 27.458658)">Runtime lifecycle verdicts</text>
   </g>
   <g id="text_3">
    <text style="fill: #22262a; font: 700 7.6px 'sans-serif'; text-anchor: start" x="55.59975" y="39.022731" transform="rotate(-0, 55.59975, 39.022731)">Property</text>
   </g>
   <g id="text_4">
    <text style="font: 700 7.4px 'sans-serif'; text-anchor: middle" x="198.72675" y="41.064669" transform="rotate(-0, 198.72675, 41.064669)">Before</text>
   </g>
   <g id="text_5">
    <text style="font: 700 7.4px 'sans-serif'" transform="translate(267.849078 37.595427)">Receive</text>
    <text style="font: 700 7.4px 'sans-serif'" transform="translate(267.109656 44.476098)">pending</text>
   </g>
   <g id="text_6">
    <text style="font: 700 7.4px 'sans-serif'" transform="translate(350.412813 37.595427)">Schedule</text>
    <text style="font: 700 7.4px 'sans-serif'" transform="translate(352.483656 44.476098)">pending</text>
   </g>
   <g id="text_7">
    <text style="font: 700 7.4px 'sans-serif'" transform="translate(444.273109 37.595427)">After</text>
    <text style="font: 700 7.4px 'sans-serif'" transform="translate(443.374703 44.476098)">apply</text>
   </g>
   <g id="text_8">
    <text style="fill: #22262a; font: 7.4px 'sans-serif'" transform="translate(55.59975 55.965453)">Attack blocked</text>
    <text style="fill: #22262a; font: 7.4px 'sans-serif'" transform="translate(55.59975 63.577093)">(0x2E 1234)</text>
   </g>
   <g id="text_9">
    <!-- $\times$ -->
    <g style="fill: #d65f5f" transform="translate(193.26675 61.316523)">
     <text>
      <tspan style="font: 13px 'DejaVu Sans'" x="0" y="-0.25">×</tspan>
     </text>
    </g>
   </g>
   <g id="text_10">
    <!-- $\times$ -->
    <g style="fill: #d65f5f" transform="translate(278.64075 61.316523)">
     <text>
      <tspan style="font: 13px 'DejaVu Sans'" x="0" y="-0.25">×</tspan>
     </text>
    </g>
   </g>
   <g id="text_11">
    <!-- $\times$ -->
    <g style="fill: #d65f5f" transform="translate(364.01475 61.316523)">
     <text>
      <tspan style="font: 13px 'DejaVu Sans'" x="0" y="-0.25">×</tspan>
     </text>
    </g>
   </g>
   <g id="text_12">
    <!-- $\checkmark$ -->
    <g style="fill: #2f8f5b" transform="translate(449.38875 61.316523)">
     <text>
      <tspan style="font: 13px 'DejaVu Sans'" x="0" y="-0.8125">✓</tspan>
     </text>
    </g>
   </g>
   <g id="text_13">
    <text style="fill: #22262a; font: 7.4px 'sans-serif'" transform="translate(55.59975 77.594965)">Benign read passes</text>
    <text style="fill: #22262a; font: 7.4px 'sans-serif'" transform="translate(55.59975 85.206605)">(0x22 1001)</text>
   </g>
   <g id="text_14">
    <!-- $\checkmark$ -->
    <g style="fill: #2f8f5b" transform="translate(193.26675 82.946035)">
     <text>
      <tspan style="font: 13px 'DejaVu Sans'" x="0" y="-0.8125">✓</tspan>
     </text>
    </g>
   </g>
   <g id="text_15">
    <!-- $\checkmark$ -->
    <g style="fill: #2f8f5b" transform="translate(278.64075 82.946035)">
     <text>
      <tspan style="font: 13px 'DejaVu Sans'" x="0" y="-0.8125">✓</tspan>
     </text>
    </g>
   </g>
   <g id="text_16">
    <!-- $\checkmark$ -->
    <g style="fill: #2f8f5b" transform="translate(364.01475 82.946035)">
     <text>
      <tspan style="font: 13px 'DejaVu Sans'" x="0" y="-0.8125">✓</tspan>
     </text>
    </g>
   </g>
   <g id="text_17">
    <!-- $\checkmark$ -->
    <g style="fill: #2f8f5b" transform="translate(449.38875 82.946035)">
     <text>
      <tspan style="font: 13px 'DejaVu Sans'" x="0" y="-0.8125">✓</tspan>
     </text>
    </g>
   </g>
   <g id="text_18">
    <text style="fill: #22262a; font: 7.4px 'sans-serif'" transform="translate(55.59975 99.224477)">Expected lifecycle</text>
    <text style="fill: #22262a; font: 7.4px 'sans-serif'" transform="translate(55.59975 106.836117)">behavior</text>
   </g>
   <g id="text_19">
    <!-- $\checkmark$ -->
    <g style="fill: #2f8f5b" transform="translate(193.26675 104.575547)">
     <text>
      <tspan style="font: 13px 'DejaVu Sans'" x="0" y="-0.8125">✓</tspan>
     </text>
    </g>
   </g>
   <g id="text_20">
    <!-- $\checkmark$ -->
    <g style="fill: #2f8f5b" transform="translate(278.64075 104.575547)">
     <text>
      <tspan style="font: 13px 'DejaVu Sans'" x="0" y="-0.8125">✓</tspan>
     </text>
    </g>
   </g>
   <g id="text_21">
    <!-- $\checkmark$ -->
    <g style="fill: #2f8f5b" transform="translate(364.01475 104.575547)">
     <text>
      <tspan style="font: 13px 'DejaVu Sans'" x="0" y="-0.8125">✓</tspan>
     </text>
    </g>
   </g>
   <g id="text_22">
    <!-- $\checkmark$ -->
    <g style="fill: #2f8f5b" transform="translate(449.38875 104.575547)">
     <text>
      <tspan style="font: 13px 'DejaVu Sans'" x="0" y="-0.8125">✓</tspan>
     </text>
    </g>
   </g>
   <g id="text_23">
    <text style="fill: #636b73; font: 6.9px 'sans-serif'; text-anchor: start" x="55.59975" y="131.386592" transform="rotate(-0, 55.59975, 131.386592)">Checks show receive/schedule are observable pending states; only apply closes the attack path.</text>
   </g>
  </g>
  <g id="axes_2">
   <g id="patch_2">
    <path d="M 40.53375 333.985801 
L 542.73375 333.985801 
L 542.73375 205.934638 
L 40.53375 205.934638 
z
" style="fill: #ffffff"/>
   </g>
   <g id="matplotlib.axis_1">
    <g id="xtick_1">
     <g id="line2d_5">
      <defs>
       <path id="mbee66b1017" d="M 0 0 
L 0 3.5 
" style="stroke: #000000; stroke-width: 0.8"/>
      </defs>
      <g>
       <use xlink:href="#mbee66b1017" x="70.724659" y="333.985801" style="stroke: #000000; stroke-width: 0.8"/>
      </g>
     </g>
     <g id="text_24">
      <text style="font: 7.2px 'sans-serif'; text-anchor: middle" x="70.724659" y="346.456676" transform="rotate(-0, 70.724659, 346.456676)">Before</text>
     </g>
    </g>
    <g id="xtick_2">
     <g id="line2d_6">
      <g>
       <use xlink:href="#mbee66b1017" x="217.997386" y="333.985801" style="stroke: #000000; stroke-width: 0.8"/>
      </g>
     </g>
     <g id="text_25">
      <text style="font: 7.2px 'sans-serif'" transform="translate(203.902261 346.456676)">Receive</text>
      <text style="font: 7.2px 'sans-serif'" transform="translate(203.362824 354.519101)">pending</text>
     </g>
    </g>
    <g id="xtick_3">
     <g id="line2d_7">
      <g>
       <use xlink:href="#mbee66b1017" x="365.270114" y="333.985801" style="stroke: #000000; stroke-width: 0.8"/>
      </g>
     </g>
     <g id="text_26">
      <text style="font: 7.2px 'sans-serif'" transform="translate(348.726426 346.456676)">Schedule</text>
      <text style="font: 7.2px 'sans-serif'" transform="translate(350.635551 354.519101)">pending</text>
     </g>
    </g>
    <g id="xtick_4">
     <g id="line2d_8">
      <g>
       <use xlink:href="#mbee66b1017" x="512.542841" y="333.985801" style="stroke: #000000; stroke-width: 0.8"/>
      </g>
     </g>
     <g id="text_27">
      <text style="font: 7.2px 'sans-serif'" transform="translate(503.900028 346.456676)">After</text>
      <text style="font: 7.2px 'sans-serif'" transform="translate(502.634966 354.519101)">apply</text>
     </g>
    </g>
   </g>
   <g id="matplotlib.axis_2">
    <g id="ytick_1">
     <g id="line2d_9">
      <path d="M 40.53375 330.440013 
L 542.73375 330.440013 
" clip-path="url(#p5c0877b2ca)" style="fill: none; stroke: #e6e8ea; stroke-width: 0.65; stroke-linecap: square"/>
     </g>
     <g id="line2d_10">
      <defs>
       <path id="mb4076ae812" d="M 0 0 
L -3.5 0 
" style="stroke: #000000; stroke-width: 0.8"/>
      </defs>
      <g>
       <use xlink:href="#mb4076ae812" x="40.53375" y="330.440013" style="stroke: #000000; stroke-width: 0.8"/>
      </g>
     </g>
     <g id="text_28">
      <text style="font: 7.2px 'sans-serif'; text-anchor: end" x="33.53375" y="333.175451" transform="rotate(-0, 33.53375, 333.175451)">2.00</text>
     </g>
    </g>
    <g id="ytick_2">
     <g id="line2d_11">
      <path d="M 40.53375 313.131667 
L 542.73375 313.131667 
" clip-path="url(#p5c0877b2ca)" style="fill: none; stroke: #e6e8ea; stroke-width: 0.65; stroke-linecap: square"/>
     </g>
     <g id="line2d_12">
      <g>
       <use xlink:href="#mb4076ae812" x="40.53375" y="313.131667" style="stroke: #000000; stroke-width: 0.8"/>
      </g>
     </g>
     <g id="text_29">
      <text style="font: 7.2px 'sans-serif'; text-anchor: end" x="33.53375" y="315.867104" transform="rotate(-0, 33.53375, 315.867104)">2.25</text>
     </g>
    </g>
    <g id="ytick_3">
     <g id="line2d_13">
      <path d="M 40.53375 295.82332 
L 542.73375 295.82332 
" clip-path="url(#p5c0877b2ca)" style="fill: none; stroke: #e6e8ea; stroke-width: 0.65; stroke-linecap: square"/>
     </g>
     <g id="line2d_14">
      <g>
       <use xlink:href="#mb4076ae812" x="40.53375" y="295.82332" style="stroke: #000000; stroke-width: 0.8"/>
      </g>
     </g>
     <g id="text_30">
      <text style="font: 7.2px 'sans-serif'; text-anchor: end" x="33.53375" y="298.558758" transform="rotate(-0, 33.53375, 298.558758)">2.50</text>
     </g>
    </g>
    <g id="ytick_4">
     <g id="line2d_15">
      <path d="M 40.53375 278.514974 
L 542.73375 278.514974 
" clip-path="url(#p5c0877b2ca)" style="fill: none; stroke: #e6e8ea; stroke-width: 0.65; stroke-linecap: square"/>
     </g>
     <g id="line2d_16">
      <g>
       <use xlink:href="#mb4076ae812" x="40.53375" y="278.514974" style="stroke: #000000; stroke-width: 0.8"/>
      </g>
     </g>
     <g id="text_31">
      <text style="font: 7.2px 'sans-serif'; text-anchor: end" x="33.53375" y="281.250411" transform="rotate(-0, 33.53375, 281.250411)">2.75</text>
     </g>
    </g>
    <g id="ytick_5">
     <g id="line2d_17">
      <path d="M 40.53375 261.206627 
L 542.73375 261.206627 
" clip-path="url(#p5c0877b2ca)" style="fill: none; stroke: #e6e8ea; stroke-width: 0.65; stroke-linecap: square"/>
     </g>
     <g id="line2d_18">
      <g>
       <use xlink:href="#mb4076ae812" x="40.53375" y="261.206627" style="stroke: #000000; stroke-width: 0.8"/>
      </g>
     </g>
     <g id="text_32">
      <text style="font: 7.2px 'sans-serif'; text-anchor: end" x="33.53375" y="263.942065" transform="rotate(-0, 33.53375, 263.942065)">3.00</text>
     </g>
    </g>
    <g id="ytick_6">
     <g id="line2d_19">
      <path d="M 40.53375 243.898281 
L 542.73375 243.898281 
" clip-path="url(#p5c0877b2ca)" style="fill: none; stroke: #e6e8ea; stroke-width: 0.65; stroke-linecap: square"/>
     </g>
     <g id="line2d_20">
      <g>
       <use xlink:href="#mb4076ae812" x="40.53375" y="243.898281" style="stroke: #000000; stroke-width: 0.8"/>
      </g>
     </g>
     <g id="text_33">
      <text style="font: 7.2px 'sans-serif'; text-anchor: end" x="33.53375" y="246.633718" transform="rotate(-0, 33.53375, 246.633718)">3.25</text>
     </g>
    </g>
    <g id="ytick_7">
     <g id="line2d_21">
      <path d="M 40.53375 226.589934 
L 542.73375 226.589934 
" clip-path="url(#p5c0877b2ca)" style="fill: none; stroke: #e6e8ea; stroke-width: 0.65; stroke-linecap: square"/>
     </g>
     <g id="line2d_22">
      <g>
       <use xlink:href="#mb4076ae812" x="40.53375" y="226.589934" style="stroke: #000000; stroke-width: 0.8"/>
      </g>
     </g>
     <g id="text_34">
      <text style="font: 7.2px 'sans-serif'; text-anchor: end" x="33.53375" y="229.325372" transform="rotate(-0, 33.53375, 229.325372)">3.50</text>
     </g>
    </g>
    <g id="ytick_8">
     <g id="line2d_23">
      <path d="M 40.53375 209.281588 
L 542.73375 209.281588 
" clip-path="url(#p5c0877b2ca)" style="fill: none; stroke: #e6e8ea; stroke-width: 0.65; stroke-linecap: square"/>
     </g>
     <g id="line2d_24">
      <g>
       <use xlink:href="#mb4076ae812" x="40.53375" y="209.281588" style="stroke: #000000; stroke-width: 0.8"/>
      </g>
     </g>
     <g id="text_35">
      <text style="font: 7.2px 'sans-serif'; text-anchor: end" x="33.53375" y="212.017025" transform="rotate(-0, 33.53375, 212.017025)">3.75</text>
     </g>
    </g>
    <g id="text_36">
     <text style="font: 8px 'sans-serif'; text-anchor: middle" x="11.83875" y="269.960219" transform="rotate(-90, 11.83875, 269.960219)">Response latency (ms)</text>
    </g>
   </g>
   <g id="PolyCollection_1">
    <defs>
     <path id="m0ea1f8f731" d="M 70.724659 -117.027109 
L 70.724659 -43.02202 
L 217.997386 -73.107595 
L 365.270114 -95.089126 
L 512.542841 -76.511663 
L 512.542841 -113.569871 
L 512.542841 -113.569871 
L 365.270114 -120.614922 
L 217.997386 -128.148483 
L 70.724659 -117.027109 
z
"/>
    </defs>
    <g clip-path="url(#p5c0877b2ca)">
     <use xlink:href="#m0ea1f8f731" x="0" y="361.776476" style="fill: #ddeaf6; fill-opacity: 0.75"/>
    </g>
   </g>
   <g id="line2d_25">
    <path d="M 70.724659 289.459941 
L 217.997386 261.845536 
L 365.270114 257.683929 
L 512.542841 262.975413 
" clip-path="url(#p5c0877b2ca)" style="fill: none; stroke: #3e78b2; stroke-width: 2.1; stroke-linecap: square"/>
    <defs>
     <path id="m40748ae045" d="M 0 2.25 
C 0.596707 2.25 1.169055 2.012926 1.59099 1.59099 
C 2.012926 1.169055 2.25 0.596707 2.25 0 
C 2.25 -0.596707 2.012926 -1.169055 1.59099 -1.59099 
C 1.169055 -2.012926 0.596707 -2.25 0 -2.25 
C -0.596707 -2.25 -1.169055 -2.012926 -1.59099 -1.59099 
C -2.012926 -1.169055 -2.25 -0.596707 -2.25 0 
C -2.25 0.596707 -2.012926 1.169055 -1.59099 1.59099 
C -1.169055 2.012926 -0.596707 2.25 0 2.25 
z
" style="stroke: #3e78b2"/>
    </defs>
    <g clip-path="url(#p5c0877b2ca)">
     <use xlink:href="#m40748ae045" x="70.724659" y="289.459941" style="fill: #3e78b2; stroke: #3e78b2"/>
     <use xlink:href="#m40748ae045" x="217.997386" y="261.845536" style="fill: #3e78b2; stroke: #3e78b2"/>
     <use xlink:href="#m40748ae045" x="365.270114" y="257.683929" style="fill: #3e78b2; stroke: #3e78b2"/>
     <use xlink:href="#m40748ae045" x="512.542841" y="262.975413" style="fill: #3e78b2; stroke: #3e78b2"/>
    </g>
   </g>
   <g id="line2d_26">
    <path d="M 70.724659 314.658886 
L 217.997386 260.652795 
L 365.270114 261.467602 
L 512.542841 261.363614 
" clip-path="url(#p5c0877b2ca)" style="fill: none; stroke-dasharray: 4.07,1.76; stroke-dashoffset: 0; stroke: #2f3437; stroke-width: 1.1"/>
    <defs>
     <path id="mb494198967" d="M -1.7 1.7 
L 1.7 1.7 
L 1.7 -1.7 
L -1.7 -1.7 
z
" style="stroke: #2f3437; stroke-linejoin: miter"/>
    </defs>
    <g clip-path="url(#p5c0877b2ca)">
     <use xlink:href="#mb494198967" x="70.724659" y="314.658886" style="fill: #2f3437; stroke: #2f3437; stroke-linejoin: miter"/>
     <use xlink:href="#mb494198967" x="217.997386" y="260.652795" style="fill: #2f3437; stroke: #2f3437; stroke-linejoin: miter"/>
     <use xlink:href="#mb494198967" x="365.270114" y="261.467602" style="fill: #2f3437; stroke: #2f3437; stroke-linejoin: miter"/>
     <use xlink:href="#mb494198967" x="512.542841" y="261.363614" style="fill: #2f3437; stroke: #2f3437; stroke-linejoin: miter"/>
    </g>
   </g>
   <g id="patch_3">
    <path d="M 40.53375 333.985801 
L 40.53375 205.934638 
" style="fill: none; stroke: #000000; stroke-width: 0.8; stroke-linejoin: miter; stroke-linecap: square"/>
   </g>
   <g id="patch_4">
    <path d="M 40.53375 333.985801 
L 542.73375 333.985801 
" style="fill: none; stroke: #000000; stroke-width: 0.8; stroke-linejoin: miter; stroke-linecap: square"/>
   </g>
   <g id="text_37">
    <text style="fill: #22262a; font: 700 9px 'sans-serif'; text-anchor: start" x="22.95675" y="200.221384" transform="rotate(-0, 22.95675, 200.221384)">b</text>
   </g>
   <g id="PathCollection_1">
    <defs>
     <path id="C0_0_ef3c8c1255" d="M 0 1.870829 
C 0.49615 1.870829 0.972045 1.673706 1.322876 1.322876 
C 1.673706 0.972045 1.870829 0.49615 1.870829 -0 
C 1.870829 -0.49615 1.673706 -0.972045 1.322876 -1.322876 
C 0.972045 -1.673706 0.49615 -1.870829 0 -1.870829 
C -0.49615 -1.870829 -0.972045 -1.673706 -1.322876 -1.322876 
C -1.673706 -0.972045 -1.870829 -0.49615 -1.870829 0 
C -1.870829 0.49615 -1.673706 0.972045 -1.322876 1.322876 
C -0.972045 1.673706 -0.49615 1.870829 0 1.870829 
z
"/>
    </defs>
    <g clip-path="url(#p5c0877b2ca)">
     <use xlink:href="#C0_0_ef3c8c1255" x="63.361023" y="314.658886" style="fill: #d65f5f; fill-opacity: 0.38"/>
    </g>
    <g clip-path="url(#p5c0877b2ca)">
     <use xlink:href="#C0_0_ef3c8c1255" x="67.042841" y="317.448922" style="fill: #d65f5f; fill-opacity: 0.38"/>
    </g>
    <g clip-path="url(#p5c0877b2ca)">
     <use xlink:href="#C0_0_ef3c8c1255" x="70.724659" y="318.754456" style="fill: #d65f5f; fill-opacity: 0.38"/>
    </g>
    <g clip-path="url(#p5c0877b2ca)">
     <use xlink:href="#C0_0_ef3c8c1255" x="74.406477" y="251.688075" style="fill: #d65f5f; fill-opacity: 0.38"/>
    </g>
    <g clip-path="url(#p5c0877b2ca)">
     <use xlink:href="#C0_0_ef3c8c1255" x="78.088295" y="244.749367" style="fill: #d65f5f; fill-opacity: 0.38"/>
    </g>
   </g>
   <g id="text_38">
    <g id="patch_5">
     <path d="M 54.090159 275.955941 
L 87.359159 275.955941 
L 87.359159 266.382816 
L 54.090159 266.382816 
z
" style="fill: #ffffff; opacity: 0.94"/>
    </g>
    <text style="font: 700 6.8px 'sans-serif'; text-anchor: middle" x="70.724659" y="273.045754" transform="rotate(-0, 70.724659, 273.045754)">2.59 ms</text>
   </g>
   <g id="PathCollection_2">
    <defs>
     <path id="C1_0_98fea785bd" d="M 0 1.870829 
C 0.49615 1.870829 0.972045 1.673706 1.322876 1.322876 
C 1.673706 0.972045 1.870829 0.49615 1.870829 -0 
C 1.870829 -0.49615 1.673706 -0.972045 1.322876 -1.322876 
C 0.972045 -1.673706 0.49615 -1.870829 0 -1.870829 
C -0.49615 -1.870829 -0.972045 -1.673706 -1.322876 -1.322876 
C -1.673706 -0.972045 -1.870829 -0.49615 -1.870829 0 
C -1.870829 0.49615 -1.673706 0.972045 -1.322876 1.322876 
C -0.972045 1.673706 -0.49615 1.870829 0 1.870829 
z
"/>
    </defs>
    <g clip-path="url(#p5c0877b2ca)">
     <use xlink:href="#C1_0_98fea785bd" x="210.63375" y="271.271292" style="fill: #b08a2e; fill-opacity: 0.38"/>
    </g>
    <g clip-path="url(#p5c0877b2ca)">
     <use xlink:href="#C1_0_98fea785bd" x="213.579205" y="233.627992" style="fill: #b08a2e; fill-opacity: 0.38"/>
    </g>
    <g clip-path="url(#p5c0877b2ca)">
     <use xlink:href="#C1_0_98fea785bd" x="216.524659" y="288.66888" style="fill: #b08a2e; fill-opacity: 0.38"/>
    </g>
    <g clip-path="url(#p5c0877b2ca)">
     <use xlink:href="#C1_0_98fea785bd" x="219.470114" y="256.199461" style="fill: #b08a2e; fill-opacity: 0.38"/>
    </g>
    <g clip-path="url(#p5c0877b2ca)">
     <use xlink:href="#C1_0_98fea785bd" x="222.415568" y="261.489307" style="fill: #b08a2e; fill-opacity: 0.38"/>
    </g>
    <g clip-path="url(#p5c0877b2ca)">
     <use xlink:href="#C1_0_98fea785bd" x="225.361023" y="259.816282" style="fill: #b08a2e; fill-opacity: 0.38"/>
    </g>
   </g>
   <g id="text_39">
    <g id="patch_6">
     <path d="M 201.362886 248.341536 
L 234.631886 248.341536 
L 234.631886 238.768411 
L 201.362886 238.768411 
z
" style="fill: #ffffff; opacity: 0.94"/>
    </g>
    <text style="font: 700 6.8px 'sans-serif'; text-anchor: middle" x="217.997386" y="245.431348" transform="rotate(-0, 217.997386, 245.431348)">2.99 ms</text>
   </g>
   <g id="PathCollection_3">
    <defs>
     <path id="C2_0_7e3ea88511" d="M 0 1.870829 
C 0.49615 1.870829 0.972045 1.673706 1.322876 1.322876 
C 1.673706 0.972045 1.870829 0.49615 1.870829 -0 
C 1.870829 -0.49615 1.673706 -0.972045 1.322876 -1.322876 
C 0.972045 -1.673706 0.49615 -1.870829 0 -1.870829 
C -0.49615 -1.870829 -0.972045 -1.673706 -1.322876 -1.322876 
C -1.673706 -0.972045 -1.870829 -0.49615 -1.870829 0 
C -1.870829 0.49615 -1.673706 0.972045 -1.322876 1.322876 
C -0.972045 1.673706 -0.49615 1.870829 0 1.870829 
z
"/>
    </defs>
    <g clip-path="url(#p5c0877b2ca)">
     <use xlink:href="#C2_0_7e3ea88511" x="357.906477" y="259.003967" style="fill: #b08a2e; fill-opacity: 0.38"/>
    </g>
    <g clip-path="url(#p5c0877b2ca)">
     <use xlink:href="#C2_0_7e3ea88511" x="360.851932" y="251.315738" style="fill: #b08a2e; fill-opacity: 0.38"/>
    </g>
    <g clip-path="url(#p5c0877b2ca)">
     <use xlink:href="#C2_0_7e3ea88511" x="363.797386" y="264.003725" style="fill: #b08a2e; fill-opacity: 0.38"/>
    </g>
    <g clip-path="url(#p5c0877b2ca)">
     <use xlink:href="#C2_0_7e3ea88511" x="366.742841" y="266.68735" style="fill: #b08a2e; fill-opacity: 0.38"/>
    </g>
    <g clip-path="url(#p5c0877b2ca)">
     <use xlink:href="#C2_0_7e3ea88511" x="369.688295" y="263.931238" style="fill: #b08a2e; fill-opacity: 0.38"/>
    </g>
    <g clip-path="url(#p5c0877b2ca)">
     <use xlink:href="#C2_0_7e3ea88511" x="372.63375" y="241.161554" style="fill: #b08a2e; fill-opacity: 0.38"/>
    </g>
   </g>
   <g id="text_40">
    <g id="patch_7">
     <path d="M 348.635614 244.179929 
L 381.904614 244.179929 
L 381.904614 234.606804 
L 348.635614 234.606804 
z
" style="fill: #ffffff; opacity: 0.94"/>
    </g>
    <text style="font: 700 6.8px 'sans-serif'; text-anchor: middle" x="365.270114" y="241.269741" transform="rotate(-0, 365.270114, 241.269741)">3.05 ms</text>
   </g>
   <g id="PathCollection_4">
    <defs>
     <path id="C3_0_148b41680a" d="M 0 1.870829 
C 0.49615 1.870829 0.972045 1.673706 1.322876 1.322876 
C 1.673706 0.972045 1.870829 0.49615 1.870829 -0 
C 1.870829 -0.49615 1.673706 -0.972045 1.322876 -1.322876 
C 0.972045 -1.673706 0.49615 -1.870829 0 -1.870829 
C -0.49615 -1.870829 -0.972045 -1.673706 -1.322876 -1.322876 
C -1.673706 -0.972045 -1.870829 -0.49615 -1.870829 0 
C -1.870829 0.49615 -1.673706 0.972045 -1.322876 1.322876 
C -0.972045 1.673706 -0.49615 1.870829 0 1.870829 
z
"/>
    </defs>
    <g clip-path="url(#p5c0877b2ca)">
     <use xlink:href="#C3_0_148b41680a" x="505.179205" y="285.264813" style="fill: #2f8f5b; fill-opacity: 0.38"/>
    </g>
    <g clip-path="url(#p5c0877b2ca)">
     <use xlink:href="#C3_0_148b41680a" x="508.124659" y="248.206605" style="fill: #2f8f5b; fill-opacity: 0.38"/>
    </g>
    <g clip-path="url(#p5c0877b2ca)">
     <use xlink:href="#C3_0_148b41680a" x="511.070114" y="263.631388" style="fill: #2f8f5b; fill-opacity: 0.38"/>
    </g>
    <g clip-path="url(#p5c0877b2ca)">
     <use xlink:href="#C3_0_148b41680a" x="514.015568" y="259.09584" style="fill: #2f8f5b; fill-opacity: 0.38"/>
    </g>
    <g clip-path="url(#p5c0877b2ca)">
     <use xlink:href="#C3_0_148b41680a" x="516.961023" y="264.845118" style="fill: #2f8f5b; fill-opacity: 0.38"/>
    </g>
    <g clip-path="url(#p5c0877b2ca)">
     <use xlink:href="#C3_0_148b41680a" x="519.906477" y="256.808715" style="fill: #2f8f5b; fill-opacity: 0.38"/>
    </g>
   </g>
   <g id="text_41">
    <g id="patch_8">
     <path d="M 495.908341 249.471413 
L 529.177341 249.471413 
L 529.177341 239.898288 
L 495.908341 239.898288 
z
" style="fill: #ffffff; opacity: 0.94"/>
    </g>
    <text style="font: 700 6.8px 'sans-serif'; text-anchor: middle" x="512.542841" y="246.561226" transform="rotate(-0, 512.542841, 246.561226)">2.97 ms</text>
   </g>
   <g id="text_42">
    <text style="font: 8.8px 'sans-serif'; text-anchor: middle" x="291.63375" y="195.934638" transform="rotate(-0, 291.63375, 195.934638)">Latency does not spike during staged runtime patching</text>
   </g>
   <g id="legend_1">
    <g id="line2d_27">
     <path d="M 490.593594 215.103544 
L 497.593594 215.103544 
L 504.593594 215.103544 
" style="fill: none; stroke: #3e78b2; stroke-width: 2.1; stroke-linecap: square"/>
     <g>
      <use xlink:href="#m40748ae045" x="497.593594" y="215.103544" style="fill: #3e78b2; stroke: #3e78b2"/>
     </g>
    </g>
    <g id="text_43">
     <text style="font: 7px 'sans-serif'; text-anchor: start" x="510.193594" y="217.553544" transform="rotate(-0, 510.193594, 217.553544)">mean</text>
    </g>
    <g id="line2d_28">
     <path d="M 490.593594 225.378232 
L 497.593594 225.378232 
L 504.593594 225.378232 
" style="fill: none; stroke-dasharray: 4.07,1.76; stroke-dashoffset: 0; stroke: #2f3437; stroke-width: 1.1"/>
     <g>
      <use xlink:href="#mb494198967" x="497.593594" y="225.378232" style="fill: #2f3437; stroke: #2f3437; stroke-linejoin: miter"/>
     </g>
    </g>
    <g id="text_44">
     <text style="font: 7px 'sans-serif'; text-anchor: start" x="510.193594" y="227.828232" transform="rotate(-0, 510.193594, 227.828232)">median</text>
    </g>
   </g>
  </g>
 </g>
 <defs>
  <clipPath id="p65727ebdd9">
   <rect x="40.53375" y="17.977801" width="502.2" height="116.916279"/>
  </clipPath>
  <clipPath id="p5c0877b2ca">
   <rect x="40.53375" y="205.934638" width="502.2" height="128.051163"/>
  </clipPath>
 </defs>
</svg>
