<?xml version="1.0" encoding="utf-8" standalone="no"?>
<!DOCTYPE svg PUBLIC "-//W3C//DTD SVG 1.1//EN"
  "http://www.w3.org/Graphics/SVG/1.1/DTD/svg11.dtd">
<svg xmlns:xlink="http://www.w3.org/1999/xlink" width="669.96pt" height="399.6pt" viewBox="0 0 669.96 399.6" xmlns="http://www.w3.org/2000/svg" version="1.1">
 <metadata>
  <rdf:RDF xmlns:dc="http://purl.org/dc/elements/1.1/" xmlns:cc="http://creativecommons.org/ns#" xmlns:rdf="http://www.w3.org/1999/02/22-rdf-syntax-ns#">
   <cc:Work>
    <dc:type rdf:resource="http://purl.org/dc/dcmitype/StillImage"/>
    <dc:date>2026-06-24T23:25:39.016342</dc:date>
    <dc:format>image/svg+xml</dc:format>
    <dc:creator>
     <cc:Agent>
      <dc:title>Matplotlib v3.5.1, https://matplotlib.org/</dc:title>
     </cc:Agent>
    </dc:creator>
   </cc:Work>
  </rdf:RDF>
 </metadata>
 <defs>
  <style type="text/css">*{stroke-linejoin: round; stroke-linecap: butt}</style>
 </defs>
 <g id="figure_1">
  <g id="patch_1">
   <path d="M 0 399.6 
L 669.96 399.6 
L 669.96 0 
L 0 0 
z
" style="fill: #ffffff"/>
  </g>
  <g id="axes_1">
   <g id="patch_2">
    <path d="M 59.75208 69.7932 
L 162.46872 69.7932 
L 162.46872 46.5084 
L 59.75208 46.5084 
z
" clip-path="url(#p87e288fcfc)" style="fill: #6b73d6; opacity: 0.92; stroke: #6b73d6; stroke-width: 0.8; stroke-linejoin: miter"/>
   </g>
   <g id="patch_3">
    <path d="M 283.62168 69.7932 
L 386.33832 69.7932 
L 386.33832 46.5084 
L 283.62168 46.5084 
z
" clip-path="url(#p87e288fcfc)" style="fill: #c98a2b; opacity: 0.92; stroke: #c98a2b; stroke-width: 0.8; stroke-linejoin: miter"/>
   </g>
   <g id="patch_4">
    <path d="M 507.49128 69.7932 
L 610.20792 69.7932 
L 610.20792 46.5084 
L 507.49128 46.5084 
z
" clip-path="url(#p87e288fcfc)" style="fill: #2f8f5b; opacity: 0.92; stroke: #2f8f5b; stroke-width: 0.8; stroke-linejoin: miter"/>
   </g>
   <g id="patch_5">
    <path d="M 114.113046 96.9588 
Q 223.045115 96.9588 330.356036 96.9588 
" clip-path="url(#p87e288fcfc)" style="fill: none; stroke: #1f5fa8; stroke-width: 1.45; stroke-linecap: round"/>
    <path d="M 325.156036 94.3588 
L 330.356036 96.9588 
L 325.156036 99.5588 
L 325.156036 94.3588 
z
" clip-path="url(#p87e288fcfc)" style="fill: #1f5fa8; stroke: #1f5fa8; stroke-width: 1.45; stroke-linecap: round"/>
   </g>
   <g id="patch_6">
    <path d="M 337.982646 96.9588 
Q 446.914715 96.9588 554.225636 96.9588 
" clip-path="url(#p87e288fcfc)" style="fill: none; stroke: #1f5fa8; stroke-width: 1.45; stroke-linecap: round"/>
    <path d="M 549.025636 94.3588 
L 554.225636 96.9588 
L 549.025636 99.5588 
L 549.025636 94.3588 
z
" clip-path="url(#p87e288fcfc)" style="fill: #1f5fa8; stroke: #1f5fa8; stroke-width: 1.45; stroke-linecap: round"/>
   </g>
   <g id="patch_7">
    <path d="M 555.846954 120.2436 
Q 446.914885 120.2436 339.49216 120.2436 
" clip-path="url(#p87e288fcfc)" style="fill: none; stroke: #1f7a4d; stroke-width: 1.35; stroke-linecap: round"/>
    <path d="M 344.69216 122.8436 
L 339.49216 120.2436 
L 344.69216 117.6436 
L 344.69216 122.8436 
z
" clip-path="url(#p87e288fcfc)" style="fill: #1f7a4d; stroke: #1f7a4d; stroke-width: 1.35; stroke-linecap: round"/>
   </g>
   <g id="patch_8">
    <path d="M 331.977354 120.2436 
Q 223.045285 120.2436 115.62256 120.2436 
" clip-path="url(#p87e288fcfc)" style="fill: none; stroke: #1f7a4d; stroke-width: 1.35; stroke-linecap: round"/>
    <path d="M 120.82256 122.8436 
L 115.62256 120.2436 
L 120.82256 117.6436 
L 120.82256 122.8436 
z
" clip-path="url(#p87e288fcfc)" style="fill: #1f7a4d; stroke: #1f7a4d; stroke-width: 1.35; stroke-linecap: round"/>
   </g>
   <g id="patch_9">
    <path d="M 114.113046 151.29 
Q 223.045115 151.29 330.356036 151.29 
" clip-path="url(#p87e288fcfc)" style="fill: none; stroke: #1f5fa8; stroke-width: 1.45; stroke-linecap: round"/>
    <path d="M 325.156036 148.69 
L 330.356036 151.29 
L 325.156036 153.89 
L 325.156036 148.69 
z
" clip-path="url(#p87e288fcfc)" style="fill: #1f5fa8; stroke: #1f5fa8; stroke-width: 1.45; stroke-linecap: round"/>
   </g>
   <g id="patch_10">
    <path d="M 337.982646 151.29 
Q 446.914715 151.29 554.225636 151.29 
" clip-path="url(#p87e288fcfc)" style="fill: none; stroke: #1f5fa8; stroke-width: 1.45; stroke-linecap: round"/>
    <path d="M 549.025636 148.69 
L 554.225636 151.29 
L 549.025636 153.89 
L 549.025636 148.69 
z
" clip-path="url(#p87e288fcfc)" style="fill: #1f5fa8; stroke: #1f5fa8; stroke-width: 1.45; stroke-linecap: round"/>
   </g>
   <g id="patch_11">
    <path d="M 555.846954 174.5748 
Q 446.914885 174.5748 339.49216 174.5748 
" clip-path="url(#p87e288fcfc)" style="fill: none; stroke: #1f7a4d; stroke-width: 1.35; stroke-linecap: round"/>
    <path d="M 344.69216 177.1748 
L 339.49216 174.5748 
L 344.69216 171.9748 
L 344.69216 177.1748 
z
" clip-path="url(#p87e288fcfc)" style="fill: #1f7a4d; stroke: #1f7a4d; stroke-width: 1.35; stroke-linecap: round"/>
   </g>
   <g id="patch_12">
    <path d="M 331.977354 174.5748 
Q 223.045285 174.5748 115.62256 174.5748 
" clip-path="url(#p87e288fcfc)" style="fill: none; stroke: #1f7a4d; stroke-width: 1.35; stroke-linecap: round"/>
    <path d="M 120.82256 177.1748 
L 115.62256 174.5748 
L 120.82256 171.9748 
L 120.82256 177.1748 
z
" clip-path="url(#p87e288fcfc)" style="fill: #1f7a4d; stroke: #1f7a4d; stroke-width: 1.35; stroke-linecap: round"/>
   </g>
   <g id="patch_13">
    <path d="M 114.113046 205.6212 
Q 223.045115 205.6212 330.356036 205.6212 
" clip-path="url(#p87e288fcfc)" style="fill: none; stroke: #1f5fa8; stroke-width: 1.45; stroke-linecap: round"/>
    <path d="M 325.156036 203.0212 
L 330.356036 205.6212 
L 325.156036 208.2212 
L 325.156036 203.0212 
z
" clip-path="url(#p87e288fcfc)" style="fill: #1f5fa8; stroke: #1f5fa8; stroke-width: 1.45; stroke-linecap: round"/>
   </g>
   <g id="patch_14">
    <path d="M 337.982646 205.6212 
Q 446.914715 205.6212 554.225636 205.6212 
" clip-path="url(#p87e288fcfc)" style="fill: none; stroke: #1f5fa8; stroke-width: 1.45; stroke-linecap: round"/>
    <path d="M 549.025636 203.0212 
L 554.225636 205.6212 
L 549.025636 208.2212 
L 549.025636 203.0212 
z
" clip-path="url(#p87e288fcfc)" style="fill: #1f5fa8; stroke: #1f5fa8; stroke-width: 1.45; stroke-linecap: round"/>
   </g>
   <g id="patch_15">
    <path d="M 555.846954 228.906 
Q 446.914885 228.906 339.49216 228.906 
" clip-path="url(#p87e288fcfc)" style="fill: none; stroke: #1f7a4d; stroke-width: 1.35; stroke-linecap: round"/>
    <path d="M 344.69216 231.506 
L 339.49216 228.906 
L 344.69216 226.306 
L 344.69216 231.506 
z
" clip-path="url(#p87e288fcfc)" style="fill: #1f7a4d; stroke: #1f7a4d; stroke-width: 1.35; stroke-linecap: round"/>
   </g>
   <g id="patch_16">
    <path d="M 331.977354 228.906 
Q 223.045285 228.906 115.62256 228.906 
" clip-path="url(#p87e288fcfc)" style="fill: none; stroke: #1f7a4d; stroke-width: 1.35; stroke-linecap: round"/>
    <path d="M 120.82256 231.506 
L 115.62256 228.906 
L 120.82256 226.306 
L 120.82256 231.506 
z
" clip-path="url(#p87e288fcfc)" style="fill: #1f7a4d; stroke: #1f7a4d; stroke-width: 1.35; stroke-linecap: round"/>
   </g>
   <g id="patch_17">
    <path d="M 114.113046 259.9524 
Q 223.045115 259.9524 330.188331 259.9524 
" clip-path="url(#p87e288fcfc)" style="fill: none; stroke: #1f5fa8; stroke-width: 1.6; stroke-linecap: round"/>
    <path d="M 324.988331 257.3524 
L 330.188331 259.9524 
L 324.988331 262.5524 
L 324.988331 257.3524 
z
" clip-path="url(#p87e288fcfc)" style="fill: #1f5fa8; stroke: #1f5fa8; stroke-width: 1.6; stroke-linecap: round"/>
   </g>
   <g id="patch_18">
    <path d="M 337.982646 259.9524 
Q 446.914715 259.9524 554.057931 259.9524 
" clip-path="url(#p87e288fcfc)" style="fill: none; stroke: #1f5fa8; stroke-width: 1.6; stroke-linecap: round"/>
    <path d="M 548.857931 257.3524 
L 554.057931 259.9524 
L 548.857931 262.5524 
L 548.857931 257.3524 
z
" clip-path="url(#p87e288fcfc)" style="fill: #1f5fa8; stroke: #1f5fa8; stroke-width: 1.6; stroke-linecap: round"/>
   </g>
   <g id="patch_19">
    <path d="M 555.846954 285.1776 
Q 446.914885 285.1776 339.603964 285.1776 
" clip-path="url(#p87e288fcfc)" style="fill: none; stroke: #1f7a4d; stroke-width: 1.45; stroke-linecap: round"/>
    <path d="M 344.803964 287.7776 
L 339.603964 285.1776 
L 344.803964 282.5776 
L 344.803964 287.7776 
z
" clip-path="url(#p87e288fcfc)" style="fill: #1f7a4d; stroke: #1f7a4d; stroke-width: 1.45; stroke-linecap: round"/>
   </g>
   <g id="patch_20">
    <path d="M 331.977354 285.1776 
Q 223.045285 285.1776 115.734364 285.1776 
" clip-path="url(#p87e288fcfc)" style="fill: none; stroke: #1f7a4d; stroke-width: 1.45; stroke-linecap: round"/>
    <path d="M 120.934364 287.7776 
L 115.734364 285.1776 
L 120.934364 282.5776 
L 120.934364 287.7776 
z
" clip-path="url(#p87e288fcfc)" style="fill: #1f7a4d; stroke: #1f7a4d; stroke-width: 1.45; stroke-linecap: round"/>
   </g>
   <g id="patch_21">
    <path d="M 555.846954 314.2836 
Q 446.914885 314.2836 339.603964 314.2836 
" clip-path="url(#p87e288fcfc)" style="fill: none; stroke: #b9413e; stroke-width: 1.45; stroke-linecap: round"/>
    <path d="M 344.803964 316.8836 
L 339.603964 314.2836 
L 344.803964 311.6836 
L 344.803964 316.8836 
z
" clip-path="url(#p87e288fcfc)" style="fill: #b9413e; stroke: #b9413e; stroke-width: 1.45; stroke-linecap: round"/>
   </g>
   <g id="patch_22">
    <path d="M 331.977354 314.2836 
Q 223.045285 314.2836 115.734364 314.2836 
" clip-path="url(#p87e288fcfc)" style="fill: none; stroke: #b9413e; stroke-width: 1.45; stroke-linecap: round"/>
    <path d="M 120.934364 316.8836 
L 115.734364 314.2836 
L 120.934364 311.6836 
L 120.934364 316.8836 
z
" clip-path="url(#p87e288fcfc)" style="fill: #b9413e; stroke: #b9413e; stroke-width: 1.45; stroke-linecap: round"/>
   </g>
   <g id="patch_23">
    <path d="M 68.3118 372.4956 
L 601.6482 372.4956 
L 601.6482 341.4492 
L 68.3118 341.4492 
z
" clip-path="url(#p87e288fcfc)" style="fill: #ffffff; stroke: #e6e8ea; stroke-width: 0.8; stroke-linejoin: miter"/>
   </g>
   <g id="line2d_1">
    <path d="M 111.1104 327.8664 
L 111.1104 69.7932 
" clip-path="url(#p87e288fcfc)" style="fill: none; stroke: #6b73d6; stroke-opacity: 0.7; stroke-linecap: square"/>
   </g>
   <g id="line2d_2">
    <path d="M 334.98 327.8664 
L 334.98 69.7932 
" clip-path="url(#p87e288fcfc)" style="fill: none; stroke: #c98a2b; stroke-opacity: 0.7; stroke-linecap: square"/>
   </g>
   <g id="line2d_3">
    <path d="M 558.8496 327.8664 
L 558.8496 69.7932 
" clip-path="url(#p87e288fcfc)" style="fill: none; stroke: #2f8f5b; stroke-opacity: 0.7; stroke-linecap: square"/>
   </g>
   <g id="text_1">
    <text style="fill: #22262a; font: 700 9px 'sans-serif'; text-anchor: start" x="18.9288" y="17.471081" transform="rotate(-0, 18.9288, 17.471081)">a</text>
   </g>
   <g id="text_2">
    <text style="font: 700 12px 'sans-serif'; text-anchor: start" x="45.2664" y="28.460925" transform="rotate(-0, 45.2664, 28.460925)">Protocol-valid UDS attack chain and the hotpatch decision point</text>
   </g>
   <g id="text_3">
    <text style="fill: #636b73; font: 8.4px 'sans-serif'; text-anchor: start" x="45.2664" y="41.248687" transform="rotate(-0, 45.2664, 41.248687)">Requests remain syntactically valid.  The security effect appears at the high-risk DID write response.</text>
   </g>
   <g id="text_4">
    <text style="fill: #ffffff; font: 700 8.5px 'sans-serif'; text-anchor: middle" x="111.1104" y="60.496269" transform="rotate(-0, 111.1104, 60.496269)">Tester</text>
   </g>
   <g id="text_5">
    <text style="fill: #ffffff; font: 700 8.5px 'sans-serif'; text-anchor: middle" x="334.98" y="60.429863" transform="rotate(-0, 334.98, 60.429863)">Gateway</text>
   </g>
   <g id="text_6">
    <text style="fill: #ffffff; font: 700 8.5px 'sans-serif'; text-anchor: middle" x="558.8496" y="60.496269" transform="rotate(-0, 558.8496, 60.496269)">ECU</text>
   </g>
   <g id="text_7">
    <g id="patch_24">
     <path d="M 157.591692 92.984833 
L 288.498708 92.984833 
L 288.498708 82.304927 
L 157.591692 82.304927 
z
" style="fill: #ffffff; opacity: 0.96"/>
    </g>
    <text style="fill: #1f5fa8; font: 6.9px 'sans-serif'; text-anchor: middle" x="223.0452" y="89.548849" transform="rotate(-0, 223.0452, 89.548849)">1  DiagnosticSessionControl 0x10 03</text>
   </g>
   <g id="text_8">
    <g id="patch_25">
     <path d="M 435.037097 137.225953 
L 458.792503 137.225953 
L 458.792503 126.546047 
L 435.037097 126.546047 
z
" style="fill: #ffffff; opacity: 0.96"/>
    </g>
    <text style="fill: #1f7a4d; font: 6.9px 'sans-serif'; text-anchor: middle" x="446.9148" y="133.789969" transform="rotate(-0, 446.9148, 133.789969)">50 03</text>
   </g>
   <g id="text_9">
    <g id="patch_26">
     <path d="M 166.137989 147.316033 
L 279.952411 147.316033 
L 279.952411 136.636127 
L 166.137989 136.636127 
z
" style="fill: #ffffff; opacity: 0.96"/>
    </g>
    <text style="fill: #1f5fa8; font: 6.9px 'sans-serif'; text-anchor: middle" x="223.0452" y="143.880049" transform="rotate(-0, 223.0452, 143.880049)">2  SecurityAccess seed 0x27 01</text>
   </g>
   <g id="text_10">
    <g id="patch_27">
     <path d="M 425.707542 191.557153 
L 468.122058 191.557153 
L 468.122058 180.877247 
L 425.707542 180.877247 
z
" style="fill: #ffffff; opacity: 0.96"/>
    </g>
    <text style="fill: #1f7a4d; font: 6.9px 'sans-serif'; text-anchor: middle" x="446.9148" y="188.121169" transform="rotate(-0, 446.9148, 188.121169)">67 01 seed</text>
   </g>
   <g id="text_11">
    <g id="patch_28">
     <path d="M 168.333591 201.647233 
L 277.756809 201.647233 
L 277.756809 190.967327 
L 168.333591 190.967327 
z
" style="fill: #ffffff; opacity: 0.96"/>
    </g>
    <text style="fill: #1f5fa8; font: 6.9px 'sans-serif'; text-anchor: middle" x="223.0452" y="198.211249" transform="rotate(-0, 223.0452, 198.211249)">3  SecurityAccess key 0x27 02</text>
   </g>
   <g id="text_12">
    <g id="patch_29">
     <path d="M 435.037097 245.888353 
L 458.792503 245.888353 
L 458.792503 235.208447 
L 435.037097 235.208447 
z
" style="fill: #ffffff; opacity: 0.96"/>
    </g>
    <text style="fill: #1f7a4d; font: 6.9px 'sans-serif'; text-anchor: middle" x="446.9148" y="242.452369" transform="rotate(-0, 446.9148, 242.452369)">67 02</text>
   </g>
   <g id="text_13">
    <g id="patch_30">
     <path d="M 159.774356 255.978433 
L 286.316044 255.978433 
L 286.316044 245.298527 
L 159.774356 245.298527 
z
" style="fill: #ffffff; opacity: 0.96"/>
    </g>
    <text style="fill: #1f5fa8; font: 6.9px 'sans-serif'; text-anchor: middle" x="223.0452" y="252.542449" transform="rotate(-0, 223.0452, 252.542449)">4  WriteDataByIdentifier 0x2E 1234</text>
   </g>
   <g id="text_14">
    <g id="patch_31">
     <path d="M 400.318238 302.159953 
L 493.511363 302.159953 
L 493.511363 291.480047 
L 400.318238 291.480047 
z
" style="fill: #ffffff; opacity: 0.96"/>
    </g>
    <text style="fill: #1f7a4d; font: 6.9px 'sans-serif'; text-anchor: middle" x="446.9148" y="298.723969" transform="rotate(-0, 446.9148, 298.723969)">before: 6E 1234 accepted</text>
   </g>
   <g id="text_15">
    <g id="patch_32">
     <path d="M 394.575605 331.265953 
L 499.253995 331.265953 
L 499.253995 320.586047 
L 394.575605 320.586047 
z
" style="fill: #ffffff; opacity: 0.96"/>
    </g>
    <text style="fill: #b9413e; font: 6.9px 'sans-serif'; text-anchor: middle" x="446.9148" y="327.829969" transform="rotate(-0, 446.9148, 327.829969)">after apply: 7F 2E 31 blocked</text>
   </g>
   <g id="text_16">
    <text style="fill: #22262a; font: 7.5px 'sans-serif'; text-anchor: middle" x="334.98" y="358.653851" transform="rotate(-0, 334.98, 358.653851)">Interpretation: the hotpatch does not hide the ECU or break SecurityAccess; it changes the ECU-local authorization for DID 0x1234 writes.</text>
   </g>
  </g>
 </g>
 <defs>
  <clipPath id="p87e288fcfc">
   <rect x="5.76" y="5.76" width="658.44" height="388.08"/>
  </clipPath>
 </defs>
</svg>
